<svg width="184" height="54" viewBox="0 0 184 54" fill="none" xmlns="http://www.w3.org/2000/svg">
<rect width="184" height="54" rx="27" fill="#FF4521"/>
<g clip-path="url(#clip0_824_19575)">
<path fill-rule="evenodd" clip-rule="evenodd" d="M153.469 34.8449H146.338C146.364 35.8949 146.71 36.6989 147.372 37.2529C147.974 37.7469 148.751 37.9949 149.705 37.9949C150.761 37.9949 151.724 37.8289 152.59 37.4919L152.963 39.1309C151.95 39.5689 150.755 39.7869 149.376 39.7869C147.717 39.7869 146.414 39.3029 145.467 38.3349C144.522 37.3659 144.047 36.0629 144.047 34.4329C144.047 32.8319 144.487 31.4969 145.369 30.4329C146.292 29.2969 147.54 28.7289 149.11 28.7289C150.652 28.7289 151.819 29.2969 152.612 30.4329C153.241 31.3329 153.556 32.4489 153.556 33.7749C153.556 34.1979 153.528 34.5549 153.469 34.8449ZM150.828 31.3479C150.416 30.6899 149.783 30.3619 148.934 30.3619C148.157 30.3619 147.524 30.6819 147.041 31.3239C146.646 31.8349 146.411 32.4489 146.338 33.1609L151.289 33.1629C151.305 32.4619 151.15 31.8579 150.828 31.3479ZM143.786 17.2479C143.808 18.2369 144.465 18.7949 145.44 18.7949C145.961 18.7949 146.436 18.7079 146.856 18.5479L147.039 19.3539C146.543 19.5689 145.957 19.6759 145.275 19.6759C143.63 19.6759 142.656 18.6439 142.656 17.0439C142.656 15.4429 143.653 14.2389 145.145 14.2389C146.486 14.2389 147.331 15.2279 147.331 16.7219C147.336 16.9259 147.325 17.1089 147.292 17.2479H143.786ZM145.063 15.0449C144.391 15.0449 143.862 15.6249 143.786 16.4209H146.22C146.22 15.6149 145.81 15.0449 145.063 15.0449ZM142.924 31.0409C142.689 30.9979 142.438 30.9759 142.175 30.9759C141.339 30.9759 140.692 31.2879 140.237 31.9169C139.842 32.4709 139.644 33.1709 139.644 34.0149V39.5909H137.267V32.3109C137.267 31.0879 137.244 29.9709 137.198 28.9659H139.268L139.355 30.9989H139.422C139.673 30.3009 140.068 29.7369 140.609 29.3149C141.14 28.9349 141.712 28.7449 142.328 28.7449C142.548 28.7449 142.746 28.7619 142.922 28.7889L142.924 31.0409ZM140.151 16.6029C140.151 15.6689 139.794 15.1959 139.091 15.1959C138.485 15.1959 137.923 15.6039 137.923 16.4309V19.5799H136.754V11.9609H137.923V15.0979H137.946C138.313 14.5299 138.845 14.2499 139.526 14.2499C140.64 14.2499 141.321 15.1089 141.321 16.4739V19.5799H140.151V16.6029ZM129.867 39.8309C128.294 39.8309 127.044 39.3139 126.112 38.2799C125.18 37.2449 124.714 35.9409 124.714 34.3669C124.714 32.7209 125.197 31.3719 126.156 30.3229C127.117 29.2739 128.413 28.7489 130.042 28.7489C131.612 28.7489 132.873 29.2679 133.828 30.3009C134.741 31.3049 135.195 32.5999 135.195 34.1899C135.195 35.8229 134.724 37.1639 133.784 38.2129C132.802 39.2919 131.496 39.8309 129.867 39.8309ZM132.093 31.7369C131.595 30.8939 130.88 30.4719 129.957 30.4719C129.005 30.4719 128.274 30.8939 127.777 31.7369C127.35 32.4359 127.139 33.2859 127.139 34.2879C127.139 35.2629 127.35 36.0999 127.777 36.7959C128.291 37.6409 129.007 38.0629 129.937 38.0629C130.846 38.0629 131.558 37.6309 132.074 36.7759C132.511 36.0609 132.729 35.2199 132.729 34.2439C132.729 33.2709 132.518 32.4359 132.093 31.7369ZM133.846 17.7639C133.846 18.4089 134.073 18.7319 134.527 18.7319C134.733 18.7319 134.907 18.7099 135.046 18.6779L135.079 19.5589C134.852 19.6449 134.548 19.6889 134.171 19.6889C133.25 19.6889 132.701 19.1839 132.701 17.8609V15.2279H131.934V14.3579H132.701V13.4009L133.846 13.0569V14.3559H135.133V15.2279H133.846V17.7639ZM126.32 16.5809C126.32 15.6579 125.963 15.1949 125.26 15.1949C124.567 15.1949 124.09 15.7859 124.09 16.4739V19.5799H122.923V15.8499C122.923 15.3889 122.91 14.8939 122.879 14.3559H123.907L123.962 15.1629H123.994C124.306 14.6049 124.946 14.2499 125.66 14.2499C126.762 14.2499 127.487 15.0869 127.487 16.4519V19.5799H126.32V16.5809ZM118.585 19.6979C117.048 19.6979 116.052 18.5589 116.052 17.0119C116.052 15.3999 117.069 14.2499 118.673 14.2499C120.185 14.2499 121.205 15.3359 121.205 16.9269C121.205 18.5589 120.155 19.6979 118.585 19.6979ZM118.629 15.0979C117.785 15.0979 117.244 15.8819 117.244 16.9789C117.244 18.0539 117.796 18.8379 118.619 18.8379C119.441 18.8379 119.992 17.9999 119.992 16.9569C119.992 15.8939 119.452 15.0979 118.629 15.0979ZM111.791 31.1089C113.069 31.6209 114.007 32.2159 114.608 32.9009C115.214 33.5859 115.515 34.4389 115.515 35.4569C115.515 36.7119 115.074 37.7319 114.197 38.5189C113.231 39.3789 111.883 39.8089 110.155 39.8089C108.557 39.8089 107.278 39.5029 106.312 38.8909L106.862 36.9229C107.904 37.5359 109.05 37.8419 110.296 37.8419C111.192 37.8419 111.889 37.6409 112.387 37.2409C112.886 36.8399 113.137 36.3039 113.137 35.6349C113.137 35.0359 112.929 34.5339 112.52 34.1259C112.108 33.7179 111.428 33.3379 110.473 32.9899C107.875 32.0269 106.574 30.6189 106.574 28.7679C106.574 27.5589 107.034 26.5699 107.95 25.7949C108.867 25.0229 110.082 24.6359 111.594 24.6359C112.944 24.6359 114.069 24.8699 114.962 25.3359L114.365 27.2599C113.525 26.8079 112.576 26.5819 111.515 26.5819C110.676 26.5819 110.018 26.7879 109.547 27.1949C109.152 27.5589 108.95 28.0029 108.95 28.5299C108.95 29.1119 109.179 29.5939 109.634 29.9729C110.029 30.3219 110.749 30.7019 111.791 31.1089ZM107.994 17.2479C108.018 18.2369 108.676 18.7949 109.649 18.7949C110.17 18.7949 110.646 18.7079 111.067 18.5479L111.249 19.3539C110.751 19.5689 110.168 19.6759 109.486 19.6759C107.841 19.6759 106.867 18.6439 106.867 17.0439C106.867 15.4429 107.864 14.2389 109.356 14.2389C110.696 14.2389 111.542 15.2279 111.542 16.7219C111.546 16.9259 111.535 17.1089 111.503 17.2479H107.994ZM109.273 15.0449C108.601 15.0449 108.073 15.6249 107.994 16.4209H110.431C110.431 15.6149 110.02 15.0449 109.273 15.0449ZM103.974 11.9609H105.142V19.5799H103.974V11.9609ZM99.9183 19.6979C99.1723 19.6979 98.6213 19.3859 98.2643 18.7739H98.2413L98.1753 19.5799H97.1803C97.2113 19.1619 97.2223 18.6879 97.2223 18.1729V11.9609H98.3933V15.1219H98.4143C98.7613 14.5409 99.3233 14.2519 100.091 14.2519C101.358 14.2519 102.245 15.3269 102.245 16.8939C102.245 18.5159 101.26 19.6979 99.9183 19.6979ZM99.6813 15.1629C99.0093 15.1629 98.3933 15.7429 98.3933 16.5489V17.4629C98.3933 18.1819 98.9463 18.7739 99.6603 18.7739C100.536 18.7739 101.057 18.0649 101.057 16.9369C101.056 15.8829 100.514 15.1629 99.6813 15.1629ZM100.492 30.2309C101.333 31.2249 101.756 32.5289 101.756 34.1469C101.756 35.9539 101.262 37.3829 100.273 38.4309C99.3873 39.3649 98.2873 39.8309 96.9743 39.8309C95.5573 39.8309 94.5383 39.3289 93.9193 38.3229V43.8989H91.5413V32.4579C91.5413 31.3219 91.5123 30.1589 91.4533 28.9649H93.5443L93.6773 30.6499H93.7213C94.5133 29.3799 95.7163 28.7449 97.3323 28.7449C98.5933 28.7449 99.6473 29.2409 100.492 30.2309ZM96.5603 30.6259C95.9733 30.6259 95.4413 30.8209 94.9633 31.2059C94.4863 31.5919 94.1743 32.0989 94.0293 32.7259C93.9563 33.0179 93.9163 33.2559 93.9163 33.4439V35.2169C93.9163 35.9889 94.1563 36.6409 94.6323 37.1749C95.1093 37.7049 95.7283 37.9729 96.4943 37.9729C97.3903 37.9729 98.0873 37.6289 98.5843 36.9449C99.0833 36.2599 99.3333 35.3559 99.3333 34.2339C99.3333 33.1989 99.0983 32.3469 98.6283 31.6749C98.1143 30.9759 97.4263 30.6259 96.5603 30.6259ZM94.1223 18.9789H94.0903C93.7333 19.4629 93.2143 19.6979 92.5543 19.6979C91.6133 19.6979 90.9423 19.0429 90.9423 18.1609C90.9423 16.8719 92.0663 16.2049 94.0143 16.2049V16.1099C94.0143 15.4219 93.6463 15.0779 92.9223 15.0779C92.4023 15.0779 91.9473 15.2069 91.5483 15.4649L91.3103 14.7009C91.7973 14.3999 92.4023 14.2499 93.1173 14.2499C94.4903 14.2499 95.1853 14.9689 95.1853 16.4089V18.3329C95.1853 18.8609 95.2083 19.2679 95.2593 19.5799H94.2093L94.1223 18.9789ZM94.0473 16.9789C92.7483 16.9789 92.0993 17.2909 92.0993 18.0319C92.0993 18.5809 92.4343 18.8479 92.8993 18.8479C93.4953 18.8479 94.0473 18.3979 94.0473 17.7849V16.9789ZM84.6683 39.8309C83.2513 39.8309 82.2323 39.3289 81.6133 38.3229V43.8989H79.2363V32.4579C79.2363 31.3219 79.2063 30.1589 79.1483 28.9649H81.2393L81.3713 30.6499H81.4163C82.2093 29.3799 83.4123 28.7449 85.0263 28.7449C86.2893 28.7449 87.3423 29.2409 88.1853 30.2309C89.0273 31.2249 89.4503 32.5289 89.4503 34.1469C89.4503 35.9539 88.9563 37.3829 87.9673 38.4309C87.0813 39.3649 85.9813 39.8309 84.6683 39.8309ZM86.3233 31.6749C85.8093 30.9759 85.1193 30.6259 84.2543 30.6259C83.6673 30.6259 83.1343 30.8209 82.6583 31.2059C82.1813 31.5919 81.8683 32.0989 81.7223 32.7259C81.6493 33.0179 81.6123 33.2559 81.6123 33.4439V35.2169C81.6123 35.9889 81.8513 36.6409 82.3283 37.1749C82.8053 37.7059 83.4253 37.9729 84.1883 37.9729C85.0833 37.9729 85.7803 37.6289 86.2783 36.9449C86.7783 36.2599 87.0283 35.3559 87.0283 34.2339C87.0283 33.1989 86.7943 32.3469 86.3233 31.6749ZM88.0753 11.9609H89.2433V19.5799H88.0753V11.9609ZM85.9993 19.5799H84.8303V14.3579H85.9993V19.5799ZM85.3923 13.4969C85.0033 13.4969 84.6993 13.1959 84.6993 12.7989C84.6993 12.4009 85.0133 12.1109 85.4143 12.1109C85.8153 12.1109 86.1393 12.4009 86.1283 12.7989C86.1283 13.2179 85.8263 13.4969 85.3923 13.4969ZM81.7273 18.9789H81.6953C81.3383 19.4629 80.8183 19.6979 80.1583 19.6979C79.2173 19.6979 78.5463 19.0429 78.5463 18.1609C78.5463 16.8719 79.6713 16.2049 81.6193 16.2049V16.1099C81.6193 15.4219 81.2513 15.0779 80.5263 15.0779C80.0063 15.0779 79.5523 15.2069 79.1533 15.4649L78.9153 14.7019C79.4023 14.4009 80.0083 14.2499 80.7223 14.2499C82.0963 14.2499 82.7903 14.9699 82.7903 16.4109V18.3339C82.7903 18.8609 82.8123 19.2699 82.8653 19.5809L81.8143 19.5799L81.7273 18.9789ZM81.6513 16.9789C80.3523 16.9789 79.7033 17.2909 79.7033 18.0319C79.7033 18.5809 80.0393 18.8479 80.5043 18.8479C81.0993 18.8479 81.6513 18.3979 81.6513 17.7849V16.9789ZM74.4473 19.5799L72.5213 14.3579H73.7763L74.6753 17.1189C74.8263 17.5809 74.9563 18.0219 75.0533 18.4399H75.0853C75.1723 18.0649 75.3013 17.6249 75.4633 17.1189L76.3503 14.3579H77.5753L75.5843 19.5799H74.4473ZM74.6553 39.5909L73.2683 35.2619H68.4463L67.1253 39.5909H64.6603L69.4373 24.8539H72.3883L77.1873 39.5909H74.6553ZM71.5953 29.5989C71.4623 29.2049 71.2133 28.2789 70.8473 26.8219H70.8023C70.6553 27.4489 70.4203 28.3739 70.0983 29.5989L68.8653 33.4459H72.8493L71.5953 29.5989ZM69.7763 17.4529H67.4073L66.7573 19.5799H65.5453L67.8933 12.3369H69.3423L71.7033 19.5799H70.4583L69.7763 17.4529ZM68.9553 14.6689C68.8903 14.4759 68.7713 14.0239 68.5873 13.3049H68.5653C68.4883 13.6159 68.3803 14.0679 68.2183 14.6689L67.6123 16.5599H69.5713L68.9553 14.6689ZM52.7723 36.3309C51.6043 38.0669 50.3803 39.7639 48.4353 39.7939C46.5463 39.8369 45.9113 38.6909 43.7443 38.6909C41.5583 38.6909 40.8813 39.7639 39.0693 39.8369C37.2173 39.9049 35.8023 37.9859 34.5913 36.2649C32.1713 32.7539 30.2863 26.3699 32.8133 22.0259C34.0373 19.8949 36.2693 18.5239 38.6553 18.4869C40.5103 18.4489 42.2303 19.7299 43.3703 19.7299C44.4873 19.7299 46.6153 18.1979 48.8073 18.4269C49.7253 18.4539 52.3363 18.7869 54.0223 21.2269C53.8853 21.3079 50.9113 23.0439 50.9433 26.6129C50.9813 30.8899 54.7113 32.3039 54.7563 32.3199C54.7343 32.4189 54.1723 34.3619 52.7723 36.3309ZM43.1473 18.1029C42.9403 16.4949 43.7423 14.7849 44.6413 13.7419C45.6573 12.5579 47.4213 11.6509 48.8313 11.5889C49.0163 13.2599 48.3493 14.9069 47.3753 16.1179C46.3583 17.3089 44.7313 18.2199 43.1473 18.1029ZM118.44 27.0149L120.774 26.3149V28.9609H123.395V30.7359H120.774V35.8949C120.774 37.2069 121.236 37.8629 122.162 37.8629C122.586 37.8629 122.939 37.8269 123.218 37.7519L123.283 39.5449C122.815 39.7189 122.199 39.8069 121.436 39.8069C120.496 39.8069 119.763 39.5209 119.233 38.9529C118.705 38.3839 118.44 37.4299 118.44 36.0879V30.7319H116.88V28.9609H118.44V27.0149Z" fill="white"/>
</g>
<defs>
<clipPath id="clip0_824_19575">
<rect width="123" height="33" fill="white" transform="translate(31 11)"/>
</clipPath>
</defs>
</svg>
