<svg width="59" height="58" viewBox="0 0 59 58" fill="none" xmlns="http://www.w3.org/2000/svg">
<path d="M29.5 58C13.4821 58 0.5 45.0179 0.5 29C0.5 12.9821 13.4821 0 29.5 0C45.5179 0 58.5 12.9821 58.5 29C58.4753 45.0055 45.5055 57.9753 29.5 58ZM29.5 2.49277C14.8643 2.49277 2.99277 14.3643 2.99277 29C2.99277 43.6357 14.8643 55.5072 29.5 55.5072C44.1357 55.5072 56.0072 43.6357 56.0072 29C55.9826 14.3643 44.1234 2.50511 29.5 2.49277Z" fill="#FF4521"/>
<path d="M45.7743 25.0533C45.762 25.0143 45.7373 24.9754 45.7126 24.9365C45.6879 24.8716 45.6509 24.8197 45.6139 24.7549L41.4923 19.4098C41.2825 19.1244 40.9617 18.9687 40.6161 18.9817H18.3299C17.9967 18.9817 17.6758 19.1374 17.4661 19.4098L13.3445 24.7678C13.3198 24.8068 13.2951 24.8587 13.2828 24.8976C13.2457 24.9495 13.2087 25.0143 13.184 25.0792C13.1594 25.17 13.1347 25.2608 13.1224 25.3646C13.1224 25.4035 13.0977 25.4295 13.0977 25.4684V25.4814C13.0977 25.6241 13.1223 25.7668 13.184 25.8965C13.1964 25.9225 13.2087 25.9484 13.2211 25.9614C13.2581 26.0522 13.3074 26.143 13.3691 26.2209L28.6339 44.0074H28.6462C28.7326 44.0982 28.819 44.1761 28.93 44.228C28.9794 44.2539 29.0287 44.2799 29.0904 44.3058C29.2138 44.3577 29.3373 44.3836 29.4607 44.3836H29.473C29.6088 44.3836 29.7322 44.3577 29.8556 44.2928C29.8926 44.2799 29.9296 44.2539 29.9666 44.2409C30.0777 44.189 30.1764 44.1112 30.2628 44.0204C30.2751 44.0074 30.2751 44.0074 30.2874 44.0074L45.5522 26.2079C45.8483 25.9095 45.9224 25.4554 45.7743 25.0533ZM23.1919 26.6101H35.7788L29.4853 40.5695L23.1919 26.6101ZM25.2157 24.3268L29.4853 21.4726L33.755 24.3268H25.2157ZM20.7485 26.6101L25.265 36.6255L16.664 26.5971L20.7485 26.6101ZM38.2222 26.6101H42.2944L33.6933 36.6255L38.2222 26.6101ZM37.8396 24.3268L33.2367 21.265H40.0978L42.4548 24.3268H37.8396ZM25.7339 21.265L21.1311 24.3268H16.5159L18.8728 21.265H25.7339Z" fill="#FF4521"/>
</svg>
