<svg width="184" height="54" viewBox="0 0 184 54" fill="none" xmlns="http://www.w3.org/2000/svg">
<rect width="184" height="54" rx="27" fill="#FF4521"/>
<g clip-path="url(#clip0_824_19579)">
<path fill-rule="evenodd" clip-rule="evenodd" d="M152.265 40.3801C151.882 41.3951 151.437 42.1125 150.927 42.5381C150.416 42.9637 149.79 43.1751 149.049 43.1751C148.634 43.1751 148.225 43.1266 147.821 43.0345V41.941C148.12 42.0098 148.456 42.0408 148.827 42.0408C149.759 42.0408 150.425 41.5144 150.823 40.4645L151.323 39.1828L147.706 30.129H149.162L151.126 35.2652C151.555 36.4363 151.825 37.2817 151.927 37.8023H151.993C152.064 37.5212 152.213 37.0452 152.44 36.3675C152.667 35.6918 153.406 33.6113 154.66 30.129H156.116L152.265 40.3801ZM145.642 37.8508H145.576C145.129 38.4179 144.682 38.7979 144.237 38.9967C143.794 39.1964 143.239 39.2963 142.573 39.2963C141.685 39.2963 140.988 39.0665 140.484 38.6079C139.979 38.1474 139.725 37.494 139.725 36.6438C139.725 34.827 141.174 33.8721 144.072 33.7858L145.594 33.7364V33.177C145.594 32.4702 145.441 31.9487 145.138 31.6123C144.837 31.2759 144.351 31.1072 143.686 31.1072C142.937 31.1072 142.094 31.3379 141.152 31.7974L140.733 30.7524C141.174 30.5139 141.659 30.3248 142.184 30.1862C142.71 30.0495 143.239 29.9816 143.769 29.9816C144.837 29.9816 145.629 30.2211 146.144 30.6981C146.659 31.1731 146.918 31.9361 146.918 32.9889V39.1324H145.912L145.642 37.8508ZM145.56 34.7058L144.201 34.7621C143.121 34.8018 142.342 34.9686 141.867 35.2681C141.389 35.5677 141.152 36.0321 141.152 36.6603C141.152 37.1528 141.298 37.5289 141.596 37.7849C141.893 38.0437 142.309 38.1707 142.844 38.1707C143.69 38.1707 144.355 37.938 144.837 37.4737C145.317 37.0083 145.56 36.3559 145.56 35.5173V34.7058ZM136.745 26.351H138.103V39.1324H136.745V26.351ZM131.236 39.2963C130.652 39.2963 130.119 39.1896 129.636 38.9734C129.153 38.7572 128.748 38.4247 128.422 37.9758H128.323C128.389 38.5013 128.422 38.9996 128.422 39.4688V43.1751H127.064V30.129H128.169L128.357 31.3612H128.422C128.771 30.8687 129.177 30.5139 129.642 30.2928C130.105 30.0766 130.637 29.9651 131.236 29.9651C132.426 29.9651 133.343 30.3733 133.99 31.1886C134.636 32.0039 134.959 33.1498 134.959 34.6234C134.959 36.1019 134.63 37.2497 133.975 38.0699C133.314 38.8871 132.403 39.2963 131.236 39.2963ZM132.893 32.0233C132.454 31.4213 131.836 31.1227 131.039 31.1227C130.124 31.1227 129.461 31.3777 129.052 31.8876C128.644 32.3975 128.433 33.207 128.422 34.319V34.6234C128.422 35.8886 128.631 36.7921 129.052 37.3389C129.471 37.8828 130.145 38.1562 131.072 38.1562C131.847 38.1562 132.454 37.8401 132.893 37.21C133.333 36.5827 133.552 35.7141 133.552 34.606C133.552 33.4843 133.333 32.6234 132.893 32.0233ZM123.175 30.1435H123.169L122.788 31.3922H122.671L122.288 30.1435H122.283V31.3922H122.146V30.0262H122.381L122.728 31.1314H122.731L123.074 30.0262H123.31V31.3922H123.175V30.1435ZM121.494 31.3922H121.343V30.1552H120.934V30.0262H121.902V30.1552H121.494V31.3922ZM118.398 38.0786C119.352 38.0786 120.043 37.7403 120.679 37.4223L119.69 38.3607C119.483 38.4732 119.278 38.605 119.074 38.6981C118.455 38.9821 117.818 39.0568 117.257 39.0568C116.661 39.0568 115.724 39.017 114.771 38.3229C113.443 37.3854 112.864 35.7713 112.864 34.3617C112.864 31.4523 115.222 30.0262 117.147 30.0262C117.818 30.0262 118.51 30.1949 119.074 30.5526C120.006 31.1702 120.249 31.9768 120.381 32.4101L115.987 34.194L114.547 34.3074C115.014 36.6913 116.621 38.0786 118.398 38.0786ZM117.931 32.765C118.287 32.6351 118.473 32.5226 118.473 32.2608C118.473 31.5105 117.632 30.6467 116.621 30.6467C115.873 30.6467 114.472 31.2284 114.472 33.2555C114.472 33.5735 114.509 33.9118 114.53 34.2502L117.931 32.765ZM111.277 26.5807V37.0713V37.2798C111.277 38.0185 111.406 38.131 112.028 38.1882C112.348 38.225 112.669 38.2424 112.99 38.2832L112.291 38.6971H108.959C109.393 38.131 109.467 38.0738 109.467 37.6966V37.0713V26.033V26.0262V26.0252H108.03L109.442 25.3437H112.135C111.55 25.685 111.362 25.7974 111.285 26.4596C111.283 26.4993 111.28 26.54 111.277 26.5807ZM104.737 16.5778C104.737 15.6655 104.481 15.3282 103.874 15.3282C103.392 15.3282 103.079 15.5637 102.618 16.0145V19.8749H101.331V14.349H102.395L102.485 15.0916H102.529C103.022 14.6078 103.583 14.2133 104.334 14.2133C105.512 14.2133 106.027 15.0131 106.027 16.4091V19.8749H104.737V16.5778ZM104.578 30.287H108.44L107.24 30.9666H106.076C106.51 31.3234 107.407 32.0766 107.407 33.5076C107.407 34.9017 106.621 35.5619 105.833 36.1833C105.59 36.4247 105.307 36.6923 105.307 37.1072C105.307 37.5202 105.59 37.7451 105.796 37.9148L106.472 38.4422C107.297 39.1402 108.046 39.779 108.046 41.0801C108.046 42.8493 106.338 44.638 103.114 44.638C100.393 44.638 99.0826 43.3389 99.0826 41.9448C99.0826 41.2672 99.417 40.3074 100.527 39.6472C101.688 38.9308 103.265 38.8387 104.108 38.7805C103.845 38.4422 103.545 38.0844 103.545 37.5027C103.545 37.1799 103.64 36.9909 103.733 36.765C103.526 36.7844 103.32 36.8018 103.131 36.8018C101.145 36.8018 100.019 35.3147 100.019 33.8479C100.019 32.9802 100.413 32.0194 101.219 31.3234C102.288 30.4392 103.562 30.287 104.578 30.287ZM102.345 39.6113C101.932 39.7616 100.733 40.2134 100.733 41.5493C100.733 42.8842 102.026 43.8479 104.033 43.8479C105.833 43.8479 106.79 42.9812 106.79 41.813C106.79 40.8522 106.172 40.3442 104.746 39.3282C104.596 39.3079 104.502 39.3079 104.316 39.3079C104.146 39.3079 103.131 39.3457 102.345 39.6113ZM101.67 32.9259C101.67 34.1862 102.402 36.2773 104.014 36.2773C104.483 36.2773 104.989 36.0514 105.289 35.749C105.721 35.3147 105.758 34.7146 105.758 34.3752C105.758 33.018 104.952 30.9094 103.396 30.9094C102.907 30.9094 102.383 31.1556 102.081 31.5328C101.763 31.9273 101.67 32.4344 101.67 32.9259ZM97.4248 20.0097C96.0578 20.0097 94.814 18.952 94.814 17.1168C94.814 15.2719 96.0578 14.2133 97.4248 14.2133C98.8053 14.2133 100.049 15.2719 100.049 17.1168C100.049 18.952 98.8053 20.0097 97.4248 20.0097ZM97.4248 15.2719C96.6192 15.2719 96.1373 16.0029 96.1373 17.1168C96.1373 18.2201 96.6192 18.952 97.4248 18.952C98.2333 18.952 98.7258 18.2201 98.7258 17.1168C98.7258 16.0029 98.2333 15.2719 97.4248 15.2719ZM99.0263 34.4586C99.0263 36.6758 97.323 39.0277 94.2711 39.0277C91.2929 39.0277 89.702 36.6942 89.702 34.5885C89.702 32.1261 91.704 30.0204 94.5513 30.0204C97.3036 30.0204 99.0263 32.1823 99.0263 34.4586ZM94.0637 30.6031C93.4461 30.6031 92.8286 30.8483 92.3797 31.2429C91.6497 31.9012 91.5169 32.7281 91.5169 33.5386C91.5169 35.398 92.4359 38.4615 94.7016 38.4615C95.4316 38.4615 96.1819 38.1048 96.6104 37.5037C97.0603 36.9026 97.1718 36.1484 97.1718 35.4164C97.1718 33.7606 96.3865 30.6031 94.0637 30.6031ZM91.0903 18.9743C91.2803 18.9743 91.5043 18.9181 91.6613 18.8502L91.8853 19.8071C91.5838 19.9079 91.2028 20.0097 90.7646 20.0097C89.4868 20.0097 89.0166 19.2002 89.0166 18.0068V15.3727H88.2313V14.4052L89.0835 14.349L89.2406 12.8405H90.3167V14.349H91.7175V15.3727H90.3167V18.0068C90.3167 18.6592 90.5629 18.9743 91.0903 18.9743ZM86.5377 13.3815C86.0772 13.3815 85.7418 13.0771 85.7418 12.6495C85.7418 12.2104 86.0772 11.9069 86.5377 11.9069C86.9972 11.9069 87.3336 12.2104 87.3336 12.6495C87.3336 13.0771 86.9972 13.3815 86.5377 13.3815ZM87.1766 14.349V19.8749H85.8872V14.349H87.1766ZM88.876 34.4586C88.876 36.6758 87.1727 39.0277 84.1208 39.0277C81.1426 39.0277 79.5517 36.6942 79.5517 34.5885C79.5517 32.1261 81.5556 30.0204 84.402 30.0204C87.1543 30.0204 88.876 32.1823 88.876 34.4586ZM83.9143 30.6031C83.2968 30.6031 82.6782 30.8483 82.2304 31.2429C81.4974 31.9012 81.3675 32.7281 81.3675 33.5386C81.3675 35.398 82.2856 38.4615 84.5522 38.4615C85.2822 38.4615 86.0297 38.1048 86.4621 37.5037C86.9109 36.9026 87.0224 36.1484 87.0224 35.4164C87.0224 33.7606 86.2372 30.6031 83.9143 30.6031ZM81.8038 18.9743C81.9938 18.9743 82.2178 18.9181 82.3748 18.8502L82.5988 19.8071C82.2973 19.9079 81.9153 20.0097 81.4781 20.0097C80.2003 20.0097 79.7291 19.2002 79.7291 18.0068V15.3727H78.9448V14.4052L79.797 14.349L79.9541 12.8405H81.0302V14.349H82.431V15.3727H81.0302V18.0068C81.0302 18.6592 81.2764 18.9743 81.8038 18.9743ZM78.1576 35.5173C78.1382 35.6869 78.1198 36.2366 78.1198 36.4237V38.732L75.4296 39.3554C74.335 39.526 73.3568 39.6753 72.3224 39.6753C67.1271 39.6753 65.1503 35.8401 65.1503 32.8338C65.1503 29.1673 67.954 25.7654 72.7558 25.7654C73.7727 25.7654 74.75 25.9167 75.6341 26.1619C77.0486 26.5584 77.7068 27.05 78.1198 27.333L76.558 28.826L75.8988 28.9773L76.3699 28.2201C75.7301 27.5987 74.5619 26.445 72.3418 26.445C69.3665 26.445 67.1271 28.7136 67.1271 32.0214C67.1271 35.5745 69.6864 38.9211 73.7902 38.9211C74.9962 38.9211 75.6167 38.6739 76.1819 38.447V35.4058L73.3394 35.5561L74.845 34.7417H78.8363L78.3457 35.2148C78.2139 35.3282 78.1954 35.366 78.1576 35.5173ZM74.9177 17.4445C75.0301 18.445 75.6583 19.0082 76.5435 19.0082C77.0137 19.0082 77.4179 18.8619 77.8212 18.603L78.2575 19.4135C77.7311 19.7615 77.0699 20.0097 76.3748 20.0097C74.8508 20.0097 73.6622 18.9404 73.6622 17.1168C73.6622 15.3165 74.906 14.2133 76.1954 14.2133C77.6865 14.2133 78.4708 15.2942 78.4708 16.8357C78.4708 17.0839 78.4485 17.3088 78.4155 17.4445H74.9177ZM76.2294 15.2157C75.5789 15.2157 75.0185 15.6995 74.906 16.6224H77.3501C77.3501 15.7441 76.9807 15.2157 76.2294 15.2157ZM70.1615 20.0097C68.2109 20.0097 66.7315 18.6592 66.7315 16.2172C66.7315 13.808 68.2565 12.379 70.2284 12.379C71.2492 12.379 71.955 12.8405 72.4145 13.3136L71.6971 14.1241C71.3268 13.7634 70.9235 13.5162 70.24 13.5162C68.94 13.5162 68.0655 14.5283 68.0655 16.1832C68.0655 17.8604 68.8498 18.8725 70.3185 18.8725C70.7218 18.8725 71.1261 18.761 71.3607 18.5468V16.9598H69.9821V15.8904H72.527V19.1323C72.0219 19.6045 71.1591 20.0097 70.1615 20.0097ZM46.8526 25.8478L51.0436 21.8459L58.2419 25.8478L51.0436 29.8517L46.8526 25.8478ZM30.6742 10.3722V10.2627L44.172 17.7693L50.4707 21.271L46.2797 25.2729L30.6742 10.3722ZM30.0547 40.8561V25.9525V11.0509L45.6611 25.9525L30.0547 40.8561ZM50.4241 30.5303L44.1255 34.0321L30.6276 41.5367V41.43L46.2331 26.5274L50.4241 30.5303Z" fill="white"/>
</g>
<defs>
<clipPath id="clip0_824_19579">
<rect width="127" height="34.9008" fill="white" transform="translate(30 10)"/>
</clipPath>
</defs>
</svg>
