<svg width="103" height="104" viewBox="0 0 103 104" fill="none" xmlns="http://www.w3.org/2000/svg">
<path d="M50.6924 102.778C78.1563 103.328 100.87 81.1942 101.426 53.3394C101.982 25.4846 80.1681 2.4573 52.7042 1.9065C25.2404 1.35569 2.5262 23.49 1.97065 51.3448C1.4151 79.1996 23.2286 102.227 50.6924 102.778Z" fill="white"/>
<path d="M51.9632 91.6964C44.2918 91.6964 36.7926 89.3891 30.4141 85.0663C24.0355 80.7436 19.0641 74.5998 16.1283 67.4113C13.1926 60.2229 12.4245 52.3129 13.9211 44.6817C15.4177 37.0505 19.1118 30.0407 24.5364 24.5389C29.9609 19.0371 36.8721 15.2905 44.3961 13.7725C51.9202 12.2546 59.719 13.0336 66.8065 16.0111C73.894 18.9887 79.9518 24.0312 84.2138 30.5006C88.4758 36.97 90.7506 44.5757 90.7506 52.3564C90.739 62.7864 86.6488 72.786 79.3773 80.1611C72.1057 87.5363 62.2467 91.6846 51.9632 91.6964V91.6964ZM51.9632 16.0042C44.8744 16.0042 37.9448 18.1365 32.0507 22.1309C26.1566 26.1253 21.5626 31.8027 18.8499 38.4452C16.1371 45.0877 15.4274 52.3969 16.8104 59.4485C18.1933 66.5001 21.6069 72.9775 26.6194 78.0615C31.632 83.1454 38.0183 86.6076 44.9709 88.0102C51.9234 89.4129 59.13 88.693 65.6791 85.9416C72.2283 83.1902 77.826 78.531 81.7643 72.5529C85.7026 66.5748 87.8047 59.5462 87.8047 52.3564C87.7957 42.7175 84.017 33.4761 77.2975 26.6598C70.578 19.8434 61.4668 16.009 51.9632 15.9983V16.0042Z" fill="#EFEFEF" stroke="#EFEFEF" stroke-width="1.06783"/>
<path d="M89.3015 53.3667C88.9157 53.3667 88.5455 53.2112 88.2725 52.9347C87.9995 52.6582 87.8459 52.2833 87.8454 51.892C87.8317 42.3723 84.0971 33.2465 77.4602 26.515C70.8232 19.7835 61.8255 15.9955 52.4395 15.9816C52.2439 15.9889 52.0488 15.9564 51.866 15.8855C51.6831 15.8147 51.5163 15.7071 51.3754 15.5693C51.2344 15.4316 51.1223 15.2664 51.0458 15.0837C50.9692 14.901 50.9297 14.7045 50.9297 14.506C50.9297 14.3074 50.9692 14.1109 51.0458 13.9282C51.1223 13.7455 51.2344 13.5803 51.3754 13.4426C51.5163 13.3048 51.6831 13.1972 51.866 13.1264C52.0488 13.0555 52.2439 13.023 52.4395 13.0303C62.6006 13.0421 72.3422 17.1413 79.5272 24.4286C86.7122 31.716 90.7538 41.5965 90.7654 51.9023C90.7623 52.2933 90.6065 52.667 90.332 52.9416C90.0576 53.2162 89.687 53.3688 89.3015 53.3667Z" fill="#FF5A24" stroke="#FF4521" stroke-width="1.06783"/>
<path d="M45.9877 64.1665V61.6251H51.4443V44.0592H47.1089V42.0784C48.2052 41.8791 49.1521 41.6424 49.9494 41.3683C50.7716 41.0693 51.5066 40.7205 52.1544 40.3218H54.509V61.6251H59.4424V64.1665H45.9877Z" fill="#1A1D30"/>
</svg>
