<svg width="64" height="64" viewBox="0 0 64 64" fill="none" xmlns="http://www.w3.org/2000/svg">
    <path d="M0 3C0 1.34315 1.34315 0 3 0H61C62.6569 0 64 1.34315 64 3V61C64 62.6569 62.6569 64 61 64H3C1.34315 64 0 62.6569 0 61V3Z" fill="#FF4521"/>
    <path d="M17.9841 22.8336C19.7401 22.0995 22.2579 21.3078 24.7064 21.0618C27.3452 20.7959 29.5833 21.1868 30.881 22.5538V41.8911C29.0258 40.8396 26.6746 40.6947 24.506 40.913C22.1647 41.1511 19.8036 41.8277 17.9841 42.5221V22.8336ZM32.8651 22.5538C34.1627 21.1868 36.4008 20.7959 39.0397 21.0618C41.4881 21.3078 44.006 22.0995 45.7619 22.8336V42.5221C43.9405 41.8277 41.5814 41.1491 39.2401 40.915C37.0695 40.6947 34.7202 40.8376 32.8651 41.8911V22.5538ZM31.873 20.7602C29.9187 19.0796 27.0853 18.8296 24.506 19.0876C21.502 19.3911 18.4702 20.4209 16.5813 21.28C16.408 21.3588 16.2611 21.4859 16.158 21.646C16.0549 21.806 16.0001 21.9924 16 22.1828V44.0082C16 44.1742 16.0417 44.3375 16.1213 44.4832C16.2008 44.6289 16.3156 44.7523 16.4552 44.8422C16.5948 44.932 16.7547 44.9854 16.9202 44.9974C17.0858 45.0094 17.2517 44.9797 17.4028 44.911C19.1528 44.1173 21.9722 43.163 24.7044 42.8872C27.5 42.6054 29.8433 43.0598 31.0992 44.6273C31.1922 44.7431 31.31 44.8366 31.4439 44.9009C31.5778 44.9652 31.7245 44.9985 31.873 44.9985C32.0216 44.9985 32.1682 44.9652 32.3022 44.9009C32.4361 44.8366 32.5539 44.7431 32.6468 44.6273C33.9028 43.0598 36.246 42.6054 39.0397 42.8872C41.7738 43.163 44.5953 44.1173 46.3433 44.911C46.4944 44.9797 46.6603 45.0094 46.8258 44.9974C46.9914 44.9854 47.1513 44.932 47.2909 44.8422C47.4304 44.7523 47.5453 44.6289 47.6248 44.4832C47.7043 44.3375 47.746 44.1742 47.746 44.0082V22.1828C47.746 21.9924 47.6912 21.806 47.5881 21.646C47.485 21.4859 47.338 21.3588 47.1647 21.28C45.2758 20.4209 42.2441 19.3911 39.2401 19.0876C36.6607 18.8276 33.8274 19.0796 31.873 20.7602Z" fill="white"/>
</svg>