<svg width="112" height="33" viewBox="0 0 112 33" fill="none" xmlns="http://www.w3.org/2000/svg">
<path d="M14.7284 7.12934L14.7367 7.13556L20.1635 12.5882L25.5604 7.16552C25.9278 6.79471 26.2453 6.37775 26.5052 5.9251C26.8227 5.36744 27.0331 4.75531 27.1254 4.12028C24.1457 1.46124 20.2902 -0.0057439 16.2966 1.69026e-05C15.2033 -0.0011617 14.1127 0.107914 13.0414 0.325615V3.09901C13.0271 4.02146 13.2465 4.93251 13.6792 5.74731C13.9594 6.25684 14.313 6.72248 14.7284 7.12934Z" fill="#A4E22D"/>
<path d="M29.6227 6.91406C29.4048 7.38346 29.1432 7.8313 28.8413 8.25166C28.5427 8.6742 28.209 9.07082 27.8437 9.4373H27.8386L22.418 14.8373L27.8706 20.2734C28.2239 20.6295 28.5465 21.0147 28.835 21.425C29.5392 22.4135 30.0236 23.5414 30.2553 24.7328C31.7947 22.1904 32.6064 19.2741 32.6018 16.302C32.6053 12.9396 31.5643 9.65921 29.6227 6.91406Z" fill="#FF4521"/>
<path d="M12.428 9.44281C11.9961 9.01169 11.6073 8.53948 11.2671 8.03286C10.3005 6.57501 9.7962 4.85947 9.82003 3.11043V1.34595C6.90159 2.60981 4.41672 4.70002 2.67179 7.35893C0.926855 10.0178 -0.0018759 13.1292 2.84477e-06 16.3096C-0.000942376 19.4895 0.928207 22.6002 2.67305 25.2586C4.4179 27.917 6.90223 30.007 9.82003 31.2712V26.6196C9.79508 24.8595 10.3083 23.1338 11.2909 21.6734C11.624 21.1786 12.0048 20.7178 12.428 20.2976L17.8528 14.8459L12.428 9.44281Z" fill="#FF4521"/>
<path d="M25.5593 22.4921L20.1707 17.0911L14.7273 22.5159C14.3111 22.9296 13.9589 23.403 13.6823 23.9206C13.2507 24.7541 13.0316 25.6812 13.0445 26.6196V32.2863C14.116 32.5023 15.2064 32.6107 16.2995 32.6098C18.9557 32.6139 21.5721 31.9654 23.9189 30.7213C25.1059 30.0943 26.2102 29.3217 27.206 28.4213L27.2494 26.6268C27.2554 25.6229 27.0018 24.6344 26.5134 23.7573C26.2496 23.2973 25.9291 22.8722 25.5593 22.4921Z" fill="#FF4521"/>
<path d="M68.0368 16.1992L71.2794 13.0051C71.7995 12.4966 72.2105 11.8874 72.4872 11.2147C72.764 10.542 72.9006 9.81994 72.8889 9.09265V6.2686H69.6586V9.09265C69.6674 9.39569 69.6126 9.69721 69.4978 9.9778C69.383 10.2584 69.2107 10.5118 68.9919 10.7217L65.7699 13.9262L62.4621 10.6018L62.4518 10.5894C62.2316 10.3854 62.0574 10.1368 61.9409 9.86013C61.8243 9.58351 61.768 9.28522 61.7757 8.98514V6.26758H58.5455V8.99031C58.5338 9.71838 58.671 10.4411 58.9486 11.1143C59.2263 11.7874 59.6385 12.3968 60.1601 12.9049L63.4679 16.2013L60.1446 19.568C59.6211 20.0731 59.2067 20.6801 58.927 21.3516C58.6473 22.0232 58.5083 22.7449 58.5186 23.4723V26.349H61.7489V23.4723C61.7419 23.1639 61.7982 22.8575 61.9143 22.5718C62.0304 22.2861 62.2038 22.0272 62.4239 21.8111L65.7617 18.4609L68.9929 21.7046C69.2135 21.9226 69.3873 22.1832 69.5037 22.4706C69.6201 22.758 69.6768 23.0661 69.67 23.3761V26.35H72.9003V23.3751C72.9126 22.6481 72.7776 21.9261 72.5035 21.2526C72.2294 20.5791 71.8218 19.9681 71.3053 19.4564L68.0368 16.1992Z" fill="white"/>
<path d="M76.137 6.26758V9.472H81.7085V26.3521H84.9388V9.472H90.56V6.26758H76.137Z" fill="white"/>
<path d="M111.934 6.26758H107.77L102.862 16.191L97.9703 6.26758H93.7891V26.349H96.9935V11.4877L101.711 20.7288H104.031L108.739 11.4877V26.3449H111.938L111.934 6.26758Z" fill="white"/>
<path d="M48.2721 9.46191H55.3125V6.26782H48.4323C47.6641 6.26796 46.9036 6.4194 46.194 6.71351C45.4844 7.00762 44.8396 7.43863 44.2966 7.98193C43.7536 8.52523 43.323 9.17016 43.0293 9.87992C42.7355 10.5897 42.5844 11.3504 42.5847 12.1185V26.3492H45.816V17.8038H53.5935V14.5993H45.816V11.9117C45.857 11.2744 46.1292 10.674 46.5814 10.223C47.0335 9.77195 47.6347 9.50135 48.2721 9.46191Z" fill="white"/>
</svg>
