<svg width="84" height="84" viewBox="0 0 84 84" fill="none" xmlns="http://www.w3.org/2000/svg">
<circle cx="42" cy="42" r="42" fill="white"/>
<path d="M30.5303 30.6436C33.1084 30.6436 35.1299 31.5518 36.5947 33.3682C38.0889 35.1553 38.8359 37.7773 38.8359 41.2344C38.8359 45.043 37.4297 48.793 34.6172 52.4844C31.834 56.1465 29.0361 57.9775 26.2236 57.9775C24.6416 57.9775 23.8506 57.3037 23.8506 55.9561C23.8506 55.0479 24.4512 54.3301 25.6523 53.8027C26.8828 53.2461 27.8789 52.6748 28.6406 52.0889C29.4023 51.4736 30.0469 50.8438 30.5742 50.1992C31.6289 48.9688 32.1562 47.8848 32.1562 46.9473C32.1562 45.9805 31.9658 45.292 31.585 44.8818C31.2041 44.4424 30.2373 43.9883 28.6846 43.5195C25.374 42.5234 23.7188 40.4287 23.7188 37.2354C23.7188 34.2764 25.0371 32.2549 27.6738 31.1709C28.5234 30.8193 29.4756 30.6436 30.5303 30.6436ZM52.0635 30.6436C54.6416 30.6436 56.6631 31.5518 58.1279 33.3682C59.6221 35.1553 60.3691 37.7773 60.3691 41.2344C60.3691 45.043 58.9629 48.793 56.1504 52.4844C53.3672 56.1465 50.5693 57.9775 47.7568 57.9775C46.1748 57.9775 45.3838 57.3037 45.3838 55.9561C45.3838 55.0479 45.9844 54.3301 47.1855 53.8027C48.416 53.2461 49.4121 52.6748 50.1738 52.0889C50.9355 51.4736 51.5801 50.8438 52.1074 50.1992C53.1621 48.9688 53.6895 47.8848 53.6895 46.9473C53.6895 45.9805 53.499 45.292 53.1182 44.8818C52.7373 44.4424 51.7705 43.9883 50.2178 43.5195C46.9072 42.5234 45.252 40.4287 45.252 37.2354C45.252 34.2764 46.5703 32.2549 49.207 31.1709C50.0566 30.8193 51.0088 30.6436 52.0635 30.6436Z" fill="#FF4521"/>
</svg>
