<svg width="103" height="104" viewBox="0 0 103 104" fill="none" xmlns="http://www.w3.org/2000/svg">
<path d="M50.4034 102.778C77.8672 103.328 100.581 81.1942 101.137 53.3394C101.692 25.4846 79.879 2.45732 52.4152 1.90651C24.9513 1.3557 2.23714 23.49 1.68159 51.3448C1.12605 79.1996 22.9395 102.227 50.4034 102.778Z" fill="white"/>
<path d="M51.6741 91.6983C44.0027 91.6983 36.5035 89.391 30.125 85.0683C23.7464 80.7456 18.775 74.6017 15.8393 67.4133C12.9036 60.2248 12.1354 52.3149 13.632 44.6837C15.1286 37.0525 18.8228 30.0427 24.2473 24.5409C29.6718 19.0391 36.5831 15.2924 44.1071 13.7745C51.6311 12.2566 59.43 13.0355 66.5174 16.0131C73.6049 18.9906 79.6627 24.0331 83.9247 30.5025C88.1867 36.972 90.4615 44.5777 90.4615 52.3584C90.4499 62.7884 86.3597 72.788 79.0882 80.1631C71.8167 87.5382 61.9576 91.6866 51.6741 91.6983ZM51.6741 16.0062C44.5853 16.0062 37.6558 18.1384 31.7617 22.1329C25.8675 26.1273 21.2736 31.8047 18.5608 38.4472C15.848 45.0896 15.1384 52.3988 16.5213 59.4504C17.9043 66.5021 21.3178 72.9795 26.3304 78.0634C31.3429 83.1473 37.7292 86.6095 44.6818 88.0122C51.6344 89.4148 58.8409 88.6949 65.3901 85.9435C71.9393 83.1921 77.5369 78.533 81.4753 72.5549C85.4136 66.5768 87.5156 59.5482 87.5156 52.3584C87.5067 42.7194 83.7279 33.4781 77.0084 26.6617C70.2889 19.8454 61.1777 16.011 51.6741 16.0003V16.0062Z" fill="#EFEFEF" stroke="#EFEFEF" stroke-width="1.06783"/>
<path d="M51.7674 91.866C41.4612 91.8542 31.5806 87.6965 24.293 80.3051C17.0054 72.9137 12.9061 62.8923 12.8945 52.4393C12.8945 52.2428 12.9328 52.0481 13.007 51.8665C13.0811 51.6849 13.1897 51.5199 13.3267 51.3809C13.4638 51.2419 13.6265 51.1315 13.8056 51.0563C13.9846 50.9811 14.1765 50.9425 14.3703 50.9425C14.5641 50.9425 14.7563 50.9811 14.9353 51.0563C15.1144 51.1315 15.2771 51.2419 15.4142 51.3809C15.5512 51.5199 15.6598 51.6849 15.7339 51.8665C15.8081 52.0481 15.8464 52.2428 15.8464 52.4393C15.8464 59.6451 17.953 66.6888 21.9001 72.6802C25.8472 78.6715 31.4572 83.3413 38.021 86.0988C44.5847 88.8564 51.8074 89.5777 58.7754 88.1719C65.7434 86.7662 72.1438 83.2962 77.1675 78.201C82.1912 73.1058 85.6124 66.6144 86.9984 59.5471C88.3844 52.4799 87.673 45.1543 84.9542 38.4971C82.2354 31.8399 77.6314 26.1501 71.7242 22.1468C65.817 18.1435 58.8719 16.0064 51.7674 16.0064C51.3757 16.0064 51.0001 15.8489 50.7231 15.568C50.4461 15.2871 50.2906 14.9058 50.2906 14.5085C50.2906 14.1113 50.4461 13.7305 50.7231 13.4496C51.0001 13.1687 51.3757 13.0107 51.7674 13.0107C62.0774 13.0107 71.9651 17.1646 79.2554 24.5588C86.5457 31.9529 90.6415 41.9815 90.6415 52.4384C90.6415 62.8952 86.5457 72.9238 79.2554 80.3179C71.9651 87.7121 62.0774 91.866 51.7674 91.866Z" fill="#FF5A24" stroke="#FF4521" stroke-width="1.06783"/>
<path d="M51.5664 64.615C50.6196 64.615 49.7475 64.5153 48.9502 64.316C48.1778 64.1416 47.4677 63.9049 46.8199 63.6059C46.1721 63.282 45.5865 62.9207 45.0633 62.522C44.565 62.1234 44.1165 61.6998 43.7178 61.2513L45.2875 59.2331C46.0101 59.9806 46.8448 60.6409 47.7916 61.2139C48.7633 61.787 49.9593 62.0736 51.3795 62.0736C52.8246 62.0736 54.0082 61.6874 54.9301 60.915C55.8519 60.1176 56.3129 59.0463 56.3129 57.7008C56.3129 57.0031 56.1759 56.3678 55.9018 55.7947C55.6526 55.1967 55.229 54.6859 54.6311 54.2624C54.0331 53.8388 53.2482 53.5149 52.2765 53.2906C51.3048 53.0664 50.1088 52.9543 48.6886 52.9543V50.5997C49.9593 50.5997 51.0182 50.4876 51.8654 50.2633C52.7374 50.0391 53.4351 49.7276 53.9583 49.329C54.5065 48.9303 54.8927 48.4569 55.1169 47.9088C55.3412 47.3606 55.4533 46.7751 55.4533 46.1522C55.4533 44.9811 55.0795 44.0592 54.3321 43.3865C53.6095 42.7138 52.6129 42.3774 51.3421 42.3774C50.3455 42.3774 49.4236 42.6016 48.5765 43.0501C47.7542 43.4986 46.9818 44.0842 46.2593 44.8067L44.6148 42.8633C45.5367 41.9912 46.5458 41.2811 47.6421 40.7329C48.7633 40.1599 50.034 39.8733 51.4543 39.8733C52.5007 39.8733 53.46 40.0104 54.3321 40.2845C55.2041 40.5585 55.9516 40.9572 56.5745 41.4804C57.2223 41.9787 57.7207 42.6016 58.0695 43.3491C58.4183 44.0966 58.5927 44.9562 58.5927 45.9279C58.5927 47.3731 58.1941 48.5566 57.3967 49.4785C56.5994 50.4004 55.553 51.1105 54.2573 51.6088V51.7583C54.9799 51.9327 55.6526 52.1943 56.2755 52.5432C56.8984 52.8671 57.4466 53.2906 57.92 53.8139C58.3934 54.3122 58.7547 54.8977 59.0038 55.5705C59.2779 56.2432 59.4149 56.9907 59.4149 57.8129C59.4149 58.8594 59.2032 59.8062 58.7796 60.6533C58.3809 61.5005 57.8203 62.2231 57.0977 62.821C56.4001 63.3941 55.5779 63.8426 54.6311 64.1665C53.6842 64.4655 52.6627 64.615 51.5664 64.615Z" fill="black"/>
</svg>
