<svg width="103" height="104" viewBox="0 0 103 104" fill="none" xmlns="http://www.w3.org/2000/svg">
<path d="M50.5461 102.775C78.01 103.324 100.726 81.1885 101.283 53.3337C101.84 25.4789 80.0275 2.45292 52.5637 1.90367C25.0998 1.35443 2.3843 23.4899 1.82717 51.3447C1.27004 79.1995 23.0823 102.225 50.5461 102.775Z" fill="white"/>
<path d="M51.8186 91.6964C44.1472 91.6964 36.6481 89.3891 30.2695 85.0663C23.891 80.7436 18.9195 74.5998 15.9838 67.4113C13.0481 60.2229 12.2799 52.3129 13.7765 44.6817C15.2732 37.0505 18.9673 30.0407 24.3918 24.5389C29.8163 19.0371 36.7276 15.2905 44.2516 13.7725C51.7756 12.2546 59.5745 13.0336 66.662 16.0111C73.7495 18.9887 79.8072 24.0312 84.0693 30.5006C88.3313 36.97 90.6061 44.5757 90.6061 52.3564C90.5945 62.7864 86.5043 72.786 79.2327 80.1611C71.9612 87.5363 62.1022 91.6846 51.8186 91.6964ZM51.8186 16.0042C44.7299 16.0042 37.8003 18.1365 31.9062 22.1309C26.0121 26.1253 21.4181 31.8027 18.7053 38.4452C15.9926 45.0877 15.2829 52.3969 16.6659 59.4485C18.0488 66.5001 21.4624 72.9775 26.4749 78.0615C31.4874 83.1454 37.8738 86.6076 44.8263 88.0102C51.7789 89.4129 58.9854 88.693 65.5346 85.9416C72.0838 83.1902 77.6815 78.531 81.6198 72.5529C85.5581 66.5748 87.6602 59.5462 87.6602 52.3564C87.6512 42.7175 83.8724 33.4761 77.1529 26.6598C70.4335 19.8434 61.3222 16.009 51.8186 15.9983V16.0042Z" fill="#EFEFEF" stroke="#EFEFEF" stroke-width="1.06783"/>
<path d="M51.8284 91.6965C51.4377 91.6965 51.0632 91.5392 50.7869 91.2591C50.5107 90.9789 50.3555 90.5988 50.3555 90.2026C50.3555 89.8064 50.5107 89.4263 50.7869 89.1461C51.0632 88.8659 51.4377 88.7087 51.8284 88.7087C61.3341 88.7087 70.4505 84.8789 77.1721 78.0616C83.8937 71.2442 87.67 61.9977 87.67 52.3565C87.67 42.7154 83.8937 33.4693 77.1721 26.652C70.4505 19.8347 61.3341 16.0043 51.8284 16.0043C51.4377 16.0043 51.0632 15.8471 50.7869 15.567C50.5107 15.2868 50.3555 14.9067 50.3555 14.5105C50.3555 14.1143 50.5107 13.7346 50.7869 13.4545C51.0632 13.1743 51.4377 13.0166 51.8284 13.0166C62.1154 13.0166 71.9811 17.1613 79.2552 24.539C86.5292 31.9167 90.6158 41.9229 90.6158 52.3565C90.6158 62.7901 86.5292 72.7964 79.2552 80.174C71.9811 87.5517 62.1154 91.6965 51.8284 91.6965Z" fill="#FF5A24" stroke="#FF4521" stroke-width="1.06783"/>
<path d="M44.3856 64.1665V62.3352C46.1795 60.5412 47.7742 58.9217 49.1695 57.4765C50.5648 56.0314 51.7358 54.6984 52.6826 53.4775C53.6295 52.2317 54.352 51.098 54.8503 50.0765C55.3487 49.03 55.5978 48.0209 55.5978 47.0492C55.5978 45.6788 55.2241 44.5576 54.4766 43.6855C53.7291 42.8134 52.5954 42.3774 51.0756 42.3774C50.0789 42.3774 49.157 42.6639 48.3099 43.237C47.4627 43.7852 46.6903 44.4579 45.9927 45.2552L44.2361 43.4986C45.2327 42.4023 46.2917 41.5303 47.4129 40.8824C48.5341 40.2097 49.8796 39.8733 51.4493 39.8733C53.6668 39.8733 55.4109 40.5212 56.6817 41.8168C57.9524 43.0875 58.5877 44.7818 58.5877 46.8997C58.5877 48.0209 58.3386 49.1546 57.8403 50.3007C57.3669 51.4219 56.6941 52.593 55.8221 53.8139C54.9749 55.0098 53.9534 56.2681 52.7574 57.5887C51.5863 58.8843 50.2907 60.2671 48.8705 61.7372C49.5183 61.6874 50.191 61.6375 50.8887 61.5877C51.5863 61.5379 52.2466 61.5129 52.8695 61.5129H59.7837V64.1665H44.3856Z" fill="black"/>
</svg>
