<svg width="103" height="104" viewBox="0 0 103 104" fill="none" xmlns="http://www.w3.org/2000/svg">
<path d="M50.2627 102.778C77.7266 103.328 100.441 81.1942 100.996 53.3394C101.552 25.4846 79.7384 2.45732 52.2746 1.90651C24.8107 1.3557 2.09652 23.49 1.54097 51.3448C0.985421 79.1996 22.7989 102.227 50.2627 102.778Z" fill="white"/>
<path d="M51.5375 91.6983C43.8661 91.6983 36.3669 89.391 29.9884 85.0683C23.6098 80.7456 18.6384 74.6017 15.7027 67.4133C12.7669 60.2248 11.9986 52.3149 13.4953 44.6837C14.9919 37.0525 18.6862 30.0427 24.1107 24.5409C29.5352 19.0391 36.4463 15.2924 43.9703 13.7745C51.4944 12.2566 59.2932 13.0355 66.3807 16.0131C73.4682 18.9906 79.526 24.0331 83.788 30.5025C88.05 36.972 90.3249 44.5777 90.3249 52.3584C90.3133 62.7884 86.223 72.788 78.9515 80.1631C71.6799 87.5382 61.821 91.6866 51.5375 91.6983ZM51.5375 16.0062C44.4487 16.0062 37.519 18.1384 31.6249 22.1329C25.7308 26.1273 21.1371 31.8047 18.4243 38.4472C15.7115 45.0896 15.0017 52.3988 16.3847 59.4504C17.7677 66.5021 21.1812 72.9795 26.1937 78.0634C31.2063 83.1473 37.5925 86.6095 44.5451 88.0122C51.4976 89.4148 58.7044 88.6949 65.2536 85.9435C71.8028 83.1921 77.4004 78.533 81.3388 72.5549C85.2771 66.5768 87.3791 59.5482 87.3791 52.3584C87.3697 42.7196 83.5907 33.4785 76.8713 26.6622C70.1519 19.846 61.0409 16.0115 51.5375 16.0003V16.0062Z" fill="#FF5A24" stroke="#FF4521" stroke-width="1.06783"/>
<path d="M53.9633 64.1665V57.5887H43.2369V55.5705L53.4401 40.3218H56.8785V55.122H60.13V57.5887H56.8785V64.1665H53.9633ZM46.4885 55.122H53.9633V48.2078C53.9633 47.5599 53.9757 46.8 54.0007 45.9279C54.0505 45.031 54.1003 44.2586 54.1502 43.6107H54.0007C53.7017 44.1838 53.3902 44.7444 53.0663 45.2926C52.7424 45.8407 52.406 46.4013 52.0572 46.9744L46.4885 55.122Z" fill="black"/>
</svg>
