<svg width="64" height="64" viewBox="0 0 64 64" fill="none" xmlns="http://www.w3.org/2000/svg">
<path d="M0 3C0 1.34315 1.34315 0 3 0H61C62.6569 0 64 1.34315 64 3V61C64 62.6569 62.6569 64 61 64H3C1.34315 64 0 62.6569 0 61V3Z" fill="#FF4521"/>
<path d="M32 16C23.1634 16 16 23.1634 16 32C16 40.8366 23.1634 48 32 48C40.8366 48 48 40.8366 48 32C47.9906 23.1674 40.8327 16.0094 32 16ZM38.7382 32.5098C38.6275 32.732 38.4474 32.9121 38.2251 33.0229V33.0286L29.0823 37.6C28.5177 37.8822 27.8313 37.6532 27.5491 37.0886C27.4689 36.928 27.4275 36.7509 27.4285 36.5715V27.4286C27.4283 26.7974 27.9397 26.2855 28.5709 26.2852C28.7484 26.2851 28.9235 26.3264 29.0823 26.4057L38.2251 30.9772C38.7901 31.2587 39.0198 31.9449 38.7382 32.5098Z" fill="#FF4521" stroke="white" stroke-width="2"/>
</svg>
